<svg xmlns="http://www.w3.org/2000/svg" viewBox="0 0 24 30" x="0px" y="0px"><title>_</title><path d="M20,20V18.97137H15V18a3,3,0,0,0-3-3H5a3,3,0,0,0-3,3v.97137H0V20ZM8.5,6A3.5,3.5,0,1,0,12,9.5,3.5,3.5,0,0,0,8.5,6ZM18,2,16.53055,4.97748l-3.28583.47742,2.37764,2.31762-.56128,3.27258L18,9.5l2.93893,1.5451-.56127-3.27258L22.75528,5.4549l-3.28583-.47742L18,2Z"/><text x="0" y="39" fill="#000000" font-size="5px" font-weight="bold" font-family="'Helvetica Neue', Helvetica, Arial-Unicode, Arial, Sans-serif">Created by Sophia</text><text x="0" y="44" fill="#000000" font-size="5px" font-weight="bold" font-family="'Helvetica Neue', Helvetica, Arial-Unicode, Arial, Sans-serif">from the Noun Project</text></svg>