<svg xmlns="http://www.w3.org/2000/svg" width="50" height="50" viewBox="0 0 50 50" version="1.1"><path d="" stroke="none" fill="#69963f" fill-rule="evenodd"/><path d="M 24 12 L 24 24 12 24 C 4.667 24, 0 24.389, 0 25 C 0 25.611, 4.667 26, 12 26 L 24 26 24 38 C 24 45.333, 24.389 50, 25 50 C 25.611 50, 26 45.344, 26 38.031 L 26 26.062 38.168 25.781 C 45.133 25.620, 50.479 25.072, 50.670 24.500 C 50.885 23.858, 46.526 23.610, 38.502 23.807 L 26 24.114 26 12.057 C 26 4.686, 25.611 0, 25 0 C 24.389 0, 24 4.667, 24 12 M -0 25 C -0 25.733, 0.300 26.033, 0.667 25.667 C 1.033 25.300, 1.033 24.700, 0.667 24.333 C 0.300 23.967, -0 24.267, -0 25" stroke="none" fill="#69963f" fill-rule="evenodd"/></svg>